<svg xmlns="http://www.w3.org/2000/svg" width="100" height="100" viewBox="0 0 100 100">
  <g fill="#7C2D2D">
    <circle cx="94.00" cy="50.00" r="3.2"/>
    <circle cx="92.50" cy="61.39" r="3.2"/>
    <circle cx="88.11" cy="72.00" r="3.2"/>
    <circle cx="81.11" cy="81.11" r="3.2"/>
    <circle cx="72.00" cy="88.11" r="3.2"/>
    <circle cx="61.39" cy="92.50" r="3.2"/>
    <circle cx="50.00" cy="94.00" r="3.2"/>
    <circle cx="38.61" cy="92.50" r="3.2"/>
    <circle cx="28.00" cy="88.11" r="3.2"/>
    <circle cx="18.89" cy="81.11" r="3.2"/>
    <circle cx="11.89" cy="72.00" r="3.2"/>
    <circle cx="7.50" cy="61.39" r="3.2"/>
    <circle cx="6.00" cy="50.00" r="3.2"/>
    <circle cx="7.50" cy="38.61" r="3.2"/>
    <circle cx="11.89" cy="28.00" r="3.2"/>
    <circle cx="18.89" cy="18.89" r="3.2"/>
    <circle cx="28.00" cy="11.89" r="3.2"/>
    <circle cx="38.61" cy="7.50" r="3.2"/>
    <circle cx="50.00" cy="6.00" r="3.2"/>
    <circle cx="61.39" cy="7.50" r="3.2"/>
    <circle cx="72.00" cy="11.89" r="3.2"/>
    <circle cx="81.11" cy="18.89" r="3.2"/>
    <circle cx="88.11" cy="28.00" r="3.2"/>
    <circle cx="92.50" cy="38.61" r="3.2"/>
  </g>
  <circle cx="50" cy="50" r="44" fill="#7C2D2D"/>
  <circle cx="50" cy="46" r="40" fill="#ffffff" fill-opacity="0.1"/>
  <circle cx="50" cy="56" r="40" fill="#000000" fill-opacity="0.12"/>
  <circle cx="50" cy="50" r="38" fill="#7C2D2D"/>
  <circle cx="50" cy="50" r="30" fill="none" stroke="#ffffff" stroke-opacity="0.18" stroke-width="1.5"/>
  <g fill="none" stroke="#ffffff" stroke-opacity="0.85" stroke-width="3" stroke-linecap="round" stroke-linejoin="round">
    <path d="M61 38 C61 31 39 31 39 41 C39 51 61 49 61 59 C61 69 39 69 39 62"/>
    <path d="M50 30 L50 70" stroke-opacity="0.5"/>
  </g>
</svg>
